<svg width="1456" height="206" viewBox="0 0 1456 206" fill="none" xmlns="http://www.w3.org/2000/svg">
<path d="M1248.55 201.036C1248.45 201.089 1248.25 201.089 1248.27 200.969C1248.91 198.136 1253.67 176.877 1263.03 157.969C1274.29 135.24 1289.9 115.637 1329.04 102.422C1386.21 83.1265 1409.77 66.1162 1432.02 39.2845C1445.04 23.5838 1452.51 4.43548 1454.36 0.199608C1454.47 -0.0409145 1454.93 -0.0810016 1455.02 0.172883C1456.57 4.82299 1455.09 18.6263 1449.97 29.824C1438.83 54.1034 1415.91 76.1914 1378.92 94.097C1342.16 111.896 1321.25 115.236 1298.12 130.857C1281.8 141.881 1269.01 160.588 1261.14 178.133C1252.99 196.266 1250.41 200.007 1248.57 201.009L1248.55 201.036Z" fill="url(#paint0_linear_274_5826)"/>
<path d="M1347.67 157.981C1347.56 157.954 1347.58 157.807 1347.67 157.794C1352.29 156.992 1390.97 149.75 1417.5 127.488C1442.36 106.643 1451.35 82.2163 1453.67 75.161C1453.83 74.6799 1454.33 74.8269 1454.55 75.2812C1457.04 80.2921 1452.68 112.108 1421.5 135.986C1380.73 167.214 1352.29 159.117 1347.64 157.981H1347.67Z" fill="url(#paint1_linear_274_5826)"/>
<path d="M1305.99 201.663C1305.87 201.596 1305.91 201.423 1306.05 201.423C1308.26 201.369 1317.72 200.247 1329.6 199.098C1341.64 197.935 1356.14 196.746 1368.07 193.285C1408.1 181.66 1421.15 167.937 1425.67 162.431C1425.79 162.298 1425.85 162.217 1426.01 162.151C1426.12 162.111 1426.25 162.137 1426.24 162.204C1425.28 167.456 1417.33 193.178 1370.33 202.505C1334.78 209.56 1310.2 204.162 1305.99 201.663Z" fill="url(#paint2_linear_274_5826)"/>
<path d="M0 202.531V53.3535H48.3188C92.7232 53.3535 122.748 83.4723 122.748 128.049C122.748 172.626 93.1359 202.531 49.1444 202.531H0ZM20.1451 71.9139V183.744H47.6931C80.7933 183.744 101.764 162.284 101.764 128.036C101.764 93.788 80.7933 71.9139 46.8675 71.9139H20.1451Z" fill="white"/>
<path d="M136.515 152.18C136.515 120.618 156.46 98.7441 185.646 98.7441C214.832 98.7441 232.926 118.547 232.926 148.466V155.681L155.209 155.882C156.647 177.128 167.751 188.9 186.871 188.9C201.876 188.9 211.743 182.713 215.031 171.155H233.126C228.186 192.815 211.33 204.988 186.458 204.988C156.846 204.988 136.501 183.528 136.501 152.167L136.515 152.18ZM155.635 142.893H213.607C213.607 126.177 202.715 115.033 185.646 115.033C168.576 115.033 158.098 125.148 155.635 142.893Z" fill="white"/>
<path d="M245.895 152.38C245.895 121.433 263.777 98.7301 293.588 98.7301C309.007 98.7301 321.962 105.545 328.739 117.919V50.6523H347.859V202.516H330.59L328.939 184.156C322.361 197.986 308.794 205.001 292.75 205.001C263.55 205.001 245.869 183.127 245.869 152.393L245.895 152.38ZM328.553 151.765C328.553 131.134 316.423 116.275 296.691 116.275C276.958 116.275 265.441 131.134 265.441 151.765C265.441 172.397 276.958 187.456 296.691 187.456C316.423 187.456 328.553 172.811 328.553 151.765Z" fill="white"/>
<path d="M368.843 174.469C368.843 155.895 382.624 144.35 406.257 142.493L437.92 140.02V137.134C437.92 120.217 427.84 114.231 414.273 114.231C398.029 114.231 388.775 121.447 388.775 133.62H371.919C371.919 112.574 389.188 98.7441 415.098 98.7441C441.009 98.7441 456.84 111.946 456.84 139.179V202.516H440.396L438.346 186.214C433.206 197.773 419.426 204.988 403.195 204.988C381.612 204.988 368.857 192.815 368.857 174.455L368.843 174.469ZM438.133 158.995V153.637L412.435 155.695C395.366 157.351 388.376 163.953 388.376 173.854C388.376 184.584 396.192 189.942 408.734 189.942C427.028 189.942 438.133 177.97 438.133 158.995Z" fill="white"/>
<path d="M481.938 202.532V50.6689H501.257V202.532H481.938Z" fill="white"/>
<path d="M616.189 101.632V202.531H598.92L596.869 187.258C591.118 197.774 577.75 205.003 562.944 205.003C539.51 205.003 526.342 189.115 526.342 164.354V101.632H545.661V157.954C545.661 179.614 554.915 187.872 569.721 187.872C587.403 187.872 597.069 176.528 597.069 154.854V101.618H616.189V101.632Z" fill="white"/>
<path d="M650.315 173.227C650.315 183.542 658.13 189.729 670.872 189.729C684.44 189.729 692.256 184.157 692.256 174.87C692.256 168.055 688.967 163.94 678.475 161.254L660.793 157.125C642.912 152.796 634.483 143.923 634.483 129.064C634.483 110.49 650.115 98.7314 672.31 98.7314C694.506 98.7314 708.699 111.105 709.112 130.293H690.605C690.192 120.178 683.415 113.791 671.685 113.791C659.954 113.791 652.764 119.149 652.764 128.436C652.764 135.251 657.704 139.781 667.57 142.266L685.252 146.595C702.321 150.724 710.75 158.568 710.75 173.628C710.75 192.816 694.306 204.989 670.46 204.989C646.613 204.989 631.807 192.402 631.807 173.213H650.315V173.227Z" fill="white"/>
<path d="M807.6 183.744H872.975V202.518H787.455V53.3535H807.6V183.757V183.744Z" fill="white"/>
<path d="M884.492 174.469C884.492 155.895 898.273 144.35 921.906 142.493L953.569 140.02V137.134C953.569 120.217 943.489 114.231 929.922 114.231C913.678 114.231 904.424 121.447 904.424 133.62H887.568C887.568 112.574 904.837 98.7441 930.747 98.7441C956.658 98.7441 972.489 111.946 972.489 139.179V202.516H956.045L953.995 186.214C948.855 197.773 935.075 204.988 918.844 204.988C897.261 204.988 884.506 192.815 884.506 174.455L884.492 174.469ZM953.782 158.995V153.637L928.084 155.695C911.015 157.351 904.025 163.953 904.025 173.854C904.025 184.584 911.84 189.942 924.383 189.942C942.677 189.942 953.782 177.97 953.782 158.995Z" fill="white"/>
<path d="M997.174 202.532V50.6689H1016.49V118.964C1023.07 105.762 1036.64 98.7467 1053.08 98.7467C1081.87 98.7467 1099.14 121.449 1099.14 152.597C1099.14 183.745 1081.04 205.004 1051.86 205.004C1036.03 205.004 1022.66 197.989 1016.08 184.159L1014.64 202.519H997.161L997.174 202.532ZM1048.36 187.46C1068.09 187.46 1079.81 172.601 1079.81 151.769C1079.81 130.937 1068.09 116.278 1048.36 116.278C1028.62 116.278 1016.69 131.137 1016.69 151.769C1016.69 172.4 1028.62 187.46 1048.36 187.46Z" fill="white"/>
<path d="M1128.75 173.227C1128.75 183.542 1136.57 189.729 1149.31 189.729C1162.88 189.729 1170.69 184.157 1170.69 174.87C1170.69 168.055 1167.4 163.94 1156.91 161.254L1139.23 157.125C1121.35 152.796 1112.92 143.923 1112.92 129.064C1112.92 110.49 1128.55 98.7314 1150.75 98.7314C1172.94 98.7314 1187.13 111.105 1187.55 130.293H1169.04C1168.63 120.178 1161.85 113.791 1150.12 113.791C1138.39 113.791 1131.2 119.149 1131.2 128.436C1131.2 135.251 1136.14 139.781 1146.01 142.266L1163.69 146.595C1180.76 150.724 1189.18 158.568 1189.18 173.628C1189.18 192.816 1172.74 204.989 1148.89 204.989C1125.05 204.989 1110.24 192.402 1110.24 173.213H1128.75V173.227Z" fill="white"/>
<defs>
<linearGradient id="paint0_linear_274_5826" x1="1351.94" y1="0" x2="1351.94" y2="201.07" gradientUnits="userSpaceOnUse">
<stop stop-color="#FEE18E"/>
<stop offset="1" stop-color="#FFC926"/>
</linearGradient>
<linearGradient id="paint1_linear_274_5826" x1="1401.37" y1="74.8633" x2="1401.37" y2="159.756" gradientUnits="userSpaceOnUse">
<stop stop-color="#FEE18E"/>
<stop offset="1" stop-color="#FFC926"/>
</linearGradient>
<linearGradient id="paint2_linear_274_5826" x1="1366.08" y1="162.132" x2="1366.08" y2="206" gradientUnits="userSpaceOnUse">
<stop stop-color="#FEE18E"/>
<stop offset="1" stop-color="#FFC926"/>
</linearGradient>
</defs>
</svg>
